grf
version=1
nRows=19
nColumns=37
inDegrees=no
endheader
time	ground_force_1_vx	ground_force_1_vy	ground_force_1_vz	ground_force_1_px	ground_force_1_py	ground_force_1_pz	ground_moment_1_mx	ground_moment_1_my	ground_moment_1_mz	ground_force_2_vx	ground_force_2_vy	ground_force_2_vz	ground_force_2_px	ground_force_2_py	ground_force_2_pz	ground_moment_2_mx	ground_moment_2_my	ground_moment_2_mz	ground_force_3_vx	ground_force_3_vy	ground_force_3_vz	ground_force_3_px	ground_force_3_py	ground_force_3_pz	ground_moment_3_mx	ground_moment_3_my	ground_moment_3_mz	ground_force_4_vx	ground_force_4_vy	ground_force_4_vz	ground_force_4_px	ground_force_4_py	ground_force_4_pz	ground_moment_4_mx	ground_moment_4_my	ground_moment_4_mz
      1.73000000	      0.00000000	     -0.00000000	      0.00000000	      0.00000000	      0.00000000	      0.00000000	      0.00000000	      0.00000000	      0.00000000	     -5.52778578	     43.13911438	   -392.63992310	   -365.03803560	  -1109.60275602	      0.00000000	      0.00000000	      0.00000000	   4130.46556526	     14.40173192	    -49.63374836	   -315.05514526	   -382.22343792	   -704.94739931	      0.00000000	      0.00000000	     -0.00000000	  -5113.98395728	      0.00000000	     -0.00000000	      0.00000000	      0.00000000	      0.00000000	      0.00000000	      0.00000000	      0.00000000	      0.00000000
      1.74000000	      0.00000000	     -0.00000000	      0.00000000	      0.00000000	      0.00000000	      0.00000000	      0.00000000	      0.00000000	      0.00000000	     -3.92234421	     38.54454803	   -374.99890137	   -365.64663503	  -1110.46800365	      0.00000000	      0.00000000	      0.00000000	   4319.49998919	     15.53963591	    -51.62536757	   -331.81915283	   -382.24878526	   -705.22893556	      0.00000000	      0.00000000	     -0.00000000	  -5514.45281121	      0.00000000	     -0.00000000	      0.00000000	      0.00000000	      0.00000000	      0.00000000	      0.00000000	      0.00000000	      0.00000000
      1.75000000	      0.00000000	     -0.00000000	      0.00000000	      0.00000000	      0.00000000	      0.00000000	      0.00000000	      0.00000000	      0.00000000	     -0.83093357	     35.41024017	   -358.93173218	   -367.47843719	  -1109.82698386	      0.00000000	      0.00000000	      0.00000000	   4587.42246646	     16.56090273	    -52.99534752	   -347.06594849	   -382.80984795	   -704.47191502	      0.00000000	      0.00000000	     -0.00000000	  -5697.42799203	      0.00000000	     -0.00000000	      0.00000000	      0.00000000	      0.00000000	      0.00000000	      0.00000000	      0.00000000	      0.00000000
      1.76000000	      0.00000000	     -0.00000000	      0.00000000	      0.00000000	      0.00000000	      0.00000000	      0.00000000	      0.00000000	      0.00000000	      1.67755938	     33.74988937	   -350.78576660	   -367.87864160	  -1109.60019063	      0.00000000	      0.00000000	     -0.00000000	   4994.82375783	     16.76718425	    -54.68509058	   -359.04251099	   -382.54831884	   -705.42491725	      0.00000000	     -0.00000000	     -0.00000000	  -6020.57397038	      0.00000000	     -0.00000000	      0.00000000	      0.00000000	      0.00000000	      0.00000000	      0.00000000	      0.00000000	      0.00000000
      1.77000000	      0.00000000	     -0.00000000	      0.00000000	      0.00000000	      0.00000000	      0.00000000	      0.00000000	      0.00000000	      0.00000000	      1.25077891	     33.36326218	   -342.23861694	   -367.19687404	  -1110.18291458	      0.00000000	      0.00000000	      0.00000000	   5153.72108310	     15.85400569	    -55.93923326	   -375.33801270	   -382.43949531	   -705.02497581	      0.00000000	      0.00000000	      0.00000000	  -6186.06327694	      0.00000000	     -0.00000000	      0.00000000	      0.00000000	      0.00000000	      0.00000000	      0.00000000	      0.00000000	      0.00000000
      1.78000000	      0.00000000	     -0.00000000	      0.00000000	      0.00000000	      0.00000000	      0.00000000	      0.00000000	      0.00000000	      0.00000000	      0.17991737	     32.64974976	   -330.98654175	   -366.91399216	  -1110.06821085	      0.00000000	      0.00000000	      0.00000000	   5398.75089041	     15.21265495	    -55.86533489	   -393.02911377	   -382.21955960	   -705.21283738	      0.00000000	      0.00000000	     -0.00000000	  -6378.12800715	      0.00000000	     -0.00000000	      0.00000000	      0.00000000	      0.00000000	      0.00000000	      0.00000000	      0.00000000	      0.00000000
      1.79000000	      0.00000000	     -0.00000000	      0.00000000	      0.00000000	      0.00000000	      0.00000000	      0.00000000	      0.00000000	      0.00000000	     -0.35461551	     31.93765259	   -327.27862549	   -366.70511455	  -1110.82727769	      0.00000000	      0.00000000	      0.00000000	   5541.16182745	     13.57366180	    -54.61255001	   -406.99682617	   -382.32709062	   -706.41814717	      0.00000000	      0.00000000	     -0.00000000	  -6764.61787249	      0.00000000	     -0.00000000	      0.00000000	      0.00000000	      0.00000000	      0.00000000	      0.00000000	      0.00000000	      0.00000000
      1.80000000	      0.00000000	     -0.00000000	      0.00000000	      0.00000000	      0.00000000	      0.00000000	      0.00000000	      0.00000000	      0.00000000	      0.71410918	     31.31528473	   -328.74658203	   -366.20756810	  -1110.71746379	      0.00000000	      0.00000000	      0.00000000	   5896.14314974	     11.28063117	    -53.34626869	   -416.24905396	   -381.54035423	   -707.48873499	      0.00000000	      0.00000000	     -0.00000000	  -7003.06651427	      0.00000000	     -0.00000000	      0.00000000	      0.00000000	      0.00000000	      0.00000000	      0.00000000	      0.00000000	      0.00000000
      1.81000000	      0.00000000	     -0.00000000	      0.00000000	      0.00000000	      0.00000000	      0.00000000	      0.00000000	      0.00000000	      0.00000000	      1.33697498	     31.37390137	   -328.34222412	   -365.94336822	  -1110.82276317	      0.00000000	      0.00000000	      0.00000000	   6333.54195984	      9.46220987	    -52.63972556	   -425.03417969	   -381.45509857	   -708.30105782	      0.00000000	      0.00000000	     -0.00000000	  -7262.48845315	      0.00000000	     -0.00000000	      0.00000000	      0.00000000	      0.00000000	      0.00000000	      0.00000000	      0.00000000	      0.00000000
      1.82000000	      0.00000000	     -0.00000000	      0.00000000	      0.00000000	      0.00000000	      0.00000000	      0.00000000	      0.00000000	      0.00000000	      1.65033627	     30.77973366	   -323.63024902	   -366.70495202	  -1110.21426656	      0.00000000	      0.00000000	      0.00000000	   6612.81396397	      7.73255258	    -53.92022773	   -438.70953369	   -381.11543660	   -708.08173762	      0.00000000	      0.00000000	     -0.00000000	  -7272.41655289	      0.00000000	     -0.00000000	      0.00000000	      0.00000000	      0.00000000	      0.00000000	      0.00000000	      0.00000000	      0.00000000
      1.83000000	      0.00000000	     -0.00000000	      0.00000000	      0.00000000	      0.00000000	      0.00000000	      0.00000000	      0.00000000	      0.00000000	      2.46794200	     30.27505684	   -321.15786743	   -367.53430642	  -1109.71718286	      0.00000000	      0.00000000	      0.00000000	   6982.09698312	      6.56459328	    -54.93660031	   -448.54010010	   -380.33832286	   -709.01994663	      0.00000000	     -0.00000000	     -0.00000000	  -7547.20501129	      0.00000000	     -0.00000000	      0.00000000	      0.00000000	      0.00000000	      0.00000000	      0.00000000	      0.00000000	      0.00000000
      1.84000000	      0.00000000	     -0.00000000	      0.00000000	      0.00000000	      0.00000000	      0.00000000	      0.00000000	      0.00000000	      0.00000000	      3.44982886	     29.87474060	   -322.69171143	   -366.60154217	  -1109.53992742	      0.00000000	      0.00000000	      0.00000000	   7398.04152036	      5.85587113	    -55.30515341	   -455.70080566	   -380.56380486	   -708.89111002	      0.00000000	      0.00000000	     -0.00000000	  -7554.16574933	      0.00000000	     -0.00000000	      0.00000000	      0.00000000	      0.00000000	      0.00000000	      0.00000000	      0.00000000	      0.00000000
      1.85000000	      0.00000000	     -0.00000000	      0.00000000	      0.00000000	      0.00000000	      0.00000000	      0.00000000	      0.00000000	      0.00000000	      3.89587283	     29.50424385	   -324.57238770	   -366.80192576	  -1110.31072170	      0.00000000	      0.00000000	      0.00000000	   7610.27624075	      5.46967652	    -54.25854921	   -459.01962280	   -380.65876462	   -709.17447257	      0.00000000	      0.00000000	     -0.00000000	  -7583.76208574	      0.00000000	     -0.00000000	      0.00000000	      0.00000000	      0.00000000	      0.00000000	      0.00000000	      0.00000000	      0.00000000
      1.86000000	      0.00000000	     -0.00000000	      0.00000000	      0.00000000	      0.00000000	      0.00000000	      0.00000000	      0.00000000	      0.00000000	      3.30079412	     29.12888145	   -321.63674927	   -367.25538900	  -1110.66234564	      0.00000000	      0.00000000	      0.00000000	   7844.76755427	      5.19118793	    -53.66987655	   -460.58175659	   -381.23951853	   -709.80472593	      0.00000000	      0.00000000	     -0.00000000	  -7602.95401023	      0.00000000	     -0.00000000	      0.00000000	      0.00000000	      0.00000000	      0.00000000	      0.00000000	      0.00000000	      0.00000000
      1.87000000	      0.00000000	     -0.00000000	      0.00000000	      0.00000000	      0.00000000	      0.00000000	      0.00000000	      0.00000000	      0.00000000	      4.69559669	     29.29306412	   -323.62164307	   -366.78782102	  -1110.62368949	      0.00000000	      0.00000000	      0.00000000	   7983.19116772	      4.40846413	    -52.49377098	   -461.46450806	   -381.27751870	   -710.21468255	      0.00000000	      0.00000000	     -0.00000000	  -7776.41977681	      0.00000000	     -0.00000000	      0.00000000	      0.00000000	      0.00000000	      0.00000000	      0.00000000	      0.00000000	      0.00000000
      1.88000000	      0.00000000	     -0.00000000	      0.00000000	      0.00000000	      0.00000000	      0.00000000	      0.00000000	      0.00000000	      0.00000000	      5.67839050	     29.11449051	   -326.34640503	   -367.01951604	  -1109.58419620	      0.00000000	      0.00000000	      0.00000000	   8203.49705625	      3.12048610	    -50.89105633	   -462.63937378	   -381.77204472	   -710.31771198	      0.00000000	      0.00000000	     -0.00000000	  -7847.42684701	      0.00000000	     -0.00000000	      0.00000000	      0.00000000	      0.00000000	      0.00000000	      0.00000000	      0.00000000	      0.00000000
      1.89000000	      0.00000000	     -0.00000000	      0.00000000	      0.00000000	      0.00000000	      0.00000000	      0.00000000	      0.00000000	      0.00000000	      5.94819164	     28.64221573	   -327.98971558	   -365.79809254	  -1109.68479257	      0.00000000	      0.00000000	      0.00000000	   8283.58552279	      2.45521071	    -48.84189627	   -461.32135010	   -382.47327474	   -712.19219211	      0.00000000	     -0.00000000	     -0.00000000	  -7976.14235780	      0.00000000	     -0.00000000	      0.00000000	      0.00000000	      0.00000000	      0.00000000	      0.00000000	      0.00000000	      0.00000000
      1.90000000	      0.00000000	     -0.00000000	      0.00000000	      0.00000000	      0.00000000	      0.00000000	      0.00000000	      0.00000000	      0.00000000	      6.70801020	     28.22414970	   -330.21765137	   -366.60717012	  -1109.61386995	      0.00000000	      0.00000000	      0.00000000	   8414.09862816	      2.79436271	    -47.16378046	   -463.02545166	   -382.60293355	   -712.24295076	      0.00000000	     -0.00000000	     -0.00000000	  -8068.62704255	      0.00000000	     -0.00000000	      0.00000000	      0.00000000	      0.00000000	      0.00000000	      0.00000000	      0.00000000	      0.00000000
      1.91000000	      0.00000000	     -0.00000000	      0.00000000	      0.00000000	      0.00000000	      0.00000000	      0.00000000	      0.00000000	      0.00000000	      8.39203739	     27.54441643	   -333.64144897	   -366.27922914	  -1109.36422248	      0.00000000	      0.00000000	      0.00000000	   8387.32588681	      3.26041843	    -46.16389875	   -462.72497559	   -382.92228810	   -712.28065384	      0.00000000	      0.00000000	     -0.00000000	  -8381.53163992	      0.00000000	     -0.00000000	      0.00000000	      0.00000000	      0.00000000	      0.00000000	      0.00000000	      0.00000000	      0.00000000
